HIERARCHY
ROOT Hips
{
     OFFSET 24.87420 93.25000 -46.27080
     CHANNELS 6 Xposition Yposition Zposition Zrotation Xrotation Yrotation
     JOINT Spine
     {
          OFFSET -0.00000 11.89050 0.00000
          CHANNELS 3 Zrotation Xrotation Yrotation
          JOINT Spine1
          {
               OFFSET -0.00000 25.65740 0.12766
               CHANNELS 3 Zrotation Xrotation Yrotation
               JOINT HEad
               {
                    OFFSET 0.00000 8.73416 0.01134
                    CHANNELS 3 Zrotation Xrotation Yrotation
                    End Site
                    {
                         OFFSET -0.29000 12.77420 2.51395
                    }
               }
               JOINT LeftShoulder1
               {
                    OFFSET 8.99000 -0.36225 -0.22000
                    CHANNELS 3 Zrotation Xrotation Yrotation
                    JOINT LeftArm
                    {
                         OFFSET 10.28270 -0.00338 0.32212
                         CHANNELS 3 Zrotation Xrotation Yrotation
                         JOINT LeftForeArm
                         {
                              OFFSET 32.76690 0.09914 -1.42434
                              CHANNELS 3 Zrotation Xrotation Yrotation
                              JOINT LeftHand
                              {
                                   OFFSET 27.56430 0.08536 1.02216
                                   CHANNELS 3 Zrotation Xrotation Yrotation
                                   End Site
                                   {
                                        OFFSET 16.74430 -0.60000 1.50291
                                   }
                              }
                         }
                    }
               }
               JOINT RightShoulder
               {
                    OFFSET -8.99000 -0.36225 -0.22000
                    CHANNELS 3 Zrotation Xrotation Yrotation
                    JOINT RightArm
                    {
                         OFFSET -10.28270 -0.00338 0.32212
                         CHANNELS 3 Zrotation Xrotation Yrotation
                         JOINT RightForeArm
                         {
                              OFFSET -32.89710 0.09914 -1.42434
                              CHANNELS 3 Zrotation Xrotation Yrotation
                              JOINT RightHand
                              {
                                   OFFSET -27.49210 0.08536 1.02216
                                   CHANNELS 3 Zrotation Xrotation Yrotation
                                   End Site
                                   {
                                        OFFSET -16.63120 -0.60000 1.50291
                                   }
                              }
                         }
                    }
               }
          }
     }
     JOINT LeftUpLeg
     {
          OFFSET 8.94580 -8.66707 0.10165
          CHANNELS 3 Zrotation Xrotation Yrotation
          JOINT LeftLeg
          {
               OFFSET 0.00000 -44.42270 1.37270
               CHANNELS 3 Zrotation Xrotation Yrotation
               JOINT LeftFoot
               {
                    OFFSET -0.25355 -42.09240 -1.46059
                    CHANNELS 3 Zrotation Xrotation Yrotation
                    JOINT LeftToes
                    {
                         OFFSET -0.04000 -4.41509 8.49910
                         CHANNELS 3 Zrotation Xrotation Yrotation
                         End Site
                         {
                              OFFSET 0.08000 -0.04745 9.77979
                         }
                    }
               }
          }
     }
     JOINT RightUpLeg
     {
          OFFSET -8.94580 -8.66707 0.10165
          CHANNELS 3 Zrotation Xrotation Yrotation
          JOINT RightLeg
          {
               OFFSET 0.00000 -44.42270 1.37270
               CHANNELS 3 Zrotation Xrotation Yrotation
               JOINT RightFoot
               {
                    OFFSET 0.25355 -42.09240 -1.46059
                    CHANNELS 3 Zrotation Xrotation Yrotation
                    JOINT RightToes
                    {
                         OFFSET 0.04000 -4.41509 8.49910
                         CHANNELS 3 Zrotation Xrotation Yrotation
                         End Site
                         {
                              OFFSET -0.08000 -0.13745 9.77979
                         }
                    }
               }
          }
     }
}
MOTION
Frames: 17
Frame Time: 0.01667
24.87420 93.25000 -46.27080 -11.10930 -9.49436 -37.27590 3.72186 11.51690 -1.79412 -0.82859 23.58160 -1.65002 -9.93265 0.75991 18.50160 -0.00000 0.00000 -0.00000 -138.66499 -61.86620 -119.36900 -39.52010 53.15610 -70.81080 23.07820 6.26479 -14.09010 7.72206 0.50228 1.46623 91.21740 -4.00522 82.10220 -2.10472 29.89270 107.09700 8.05343 10.78730 7.37550 26.42260 -5.65582 -16.37880 -27.24600 15.28330 69.54120 -15.81710 0.95364 1.17462 7.94237 -9.29625 -50.37340 -21.60850 8.24481 12.35840 38.89780 15.06140 -28.40570 -30.43090 -6.83475 0.06025 4.18942 -32.14460 9.62726 
24.88980 93.11710 -45.91450 -11.27020 -9.41780 -37.16020 3.80173 11.50060 -1.86773 -0.76533 23.56610 -1.78795 -9.73623 0.61710 18.86790 -0.00000 0.00000 -0.00000 -139.11800 -61.92580 -119.81600 -39.79500 53.30450 -70.55890 23.10430 6.25608 -14.11150 7.69473 0.48768 1.34197 91.28680 -4.30103 82.30430 -2.53906 29.78300 107.63500 8.14672 10.78490 7.22152 26.82410 -6.01675 -16.18390 -28.24010 15.80940 71.28200 -16.33620 0.43640 1.14369 7.94292 -9.49528 -50.75170 -21.66720 8.52633 12.49650 39.08920 14.90580 -28.55680 -30.49430 -6.89976 0.04243 4.18094 -32.33390 9.34923 
24.90980 93.01380 -45.54880 -11.42440 -9.34651 -36.97760 3.78210 11.49060 -1.93436 -0.66621 23.55100 -1.96470 -9.34545 0.25482 19.42460 -0.00000 0.00000 -0.00000 -140.11501 -61.93410 -120.70100 -40.20370 53.70970 -70.18120 23.11540 6.25072 -14.12890 7.57305 0.46813 1.19500 91.32680 -4.59303 82.52420 -3.02431 29.59060 108.20500 8.24086 10.78270 7.07276 27.28880 -6.29720 -15.63870 -29.25820 16.15020 73.09430 -16.70870 -0.07770 1.09856 8.03961 -9.24416 -51.07350 -21.71770 8.90209 12.62990 39.22490 14.61100 -28.65260 -30.57160 -6.86574 0.05260 4.17205 -32.59890 8.98922 
24.93660 92.96010 -45.17350 -11.55700 -9.29160 -36.72960 3.63023 11.48990 -1.97213 -0.54690 23.53750 -2.14487 -8.79364 -0.32230 20.10170 -0.00000 0.00000 -0.00000 -141.08501 -61.86990 -121.54600 -40.46400 54.17650 -69.93150 23.08600 6.26248 -14.09500 7.41744 0.44704 1.03877 91.32390 -5.00563 82.79690 -3.39599 29.42270 108.74100 8.31615 10.77940 6.93602 27.78490 -6.43517 -14.58520 -30.19460 16.26340 75.03360 -16.76480 -0.45119 1.04984 8.16269 -8.91307 -51.44490 -21.79420 9.39808 12.75930 39.30010 14.12380 -28.65050 -30.55580 -6.72386 0.09251 4.15480 -32.79990 8.65859 
24.96930 92.96740 -44.78600 -11.64650 -9.25650 -36.41050 3.32445 11.49530 -1.96690 -0.43409 23.51640 -2.30032 -8.19884 -0.98659 20.73720 -0.00000 0.00000 -0.00000 -141.51199 -61.74290 -121.92600 -40.42010 54.52850 -69.95520 23.02950 6.28976 -14.00650 7.33750 0.42765 0.87770 91.18810 -5.63687 83.14200 -3.43537 29.36140 109.15000 8.33590 10.77250 6.82326 28.25860 -6.41189 -12.96270 -30.97200 16.15900 77.18130 -16.51840 -0.66158 1.00489 8.30933 -8.54413 -51.91220 -21.92770 10.02660 12.87490 39.31950 13.41160 -28.52800 -30.37610 -6.49136 0.15610 4.12023 -32.80220 8.44245 
25.00530 93.02130 -44.37270 -11.70340 -9.22211 -36.01270 2.89526 11.49990 -1.92034 -0.32931 23.47620 -2.42149 -7.81238 -1.42113 21.06710 -0.00000 0.00000 -0.00000 -141.46500 -61.56150 -121.89500 -40.21480 54.80390 -70.13150 22.99430 6.31726 -13.89870 7.39496 0.40631 0.66848 90.85910 -6.48213 83.54970 -2.87543 29.49010 109.31600 8.26532 10.75910 6.73983 28.68110 -6.28684 -10.81380 -31.58740 15.95750 79.66290 -16.15280 -0.81520 0.96133 8.50649 -7.97759 -52.37660 -22.10760 10.78680 12.96580 39.30900 12.48430 -28.29400 -30.04180 -6.22742 0.22553 4.05154 -32.50370 8.33788 
25.04520 93.08040 -43.90600 -11.78900 -9.15016 -35.54770 2.43918 11.49620 -1.84754 -0.19693 23.41040 -2.51202 -7.80930 -1.36100 20.93540 -0.00000 0.00000 -0.00000 -141.40300 -61.33820 -121.83000 -40.12350 55.17040 -70.22620 23.01130 6.33456 -13.79860 7.57969 0.37815 0.37626 90.32530 -7.47433 83.99050 -1.64340 29.80320 109.20400 8.11119 10.74190 6.70734 29.08950 -6.17885 -8.23425 -32.12630 15.89720 82.62160 -15.98130 -1.11107 0.91130 8.77882 -6.98794 -52.61140 -22.27230 11.66870 13.04180 39.30820 11.39460 -27.97770 -29.62850 -6.01272 0.27855 3.92782 -31.86700 8.24826 
25.09220 93.09680 -43.35240 -11.98920 -9.00548 -35.03720 2.07840 11.47850 -1.76935 0.01992 23.31930 -2.58727 -8.05184 -0.89934 20.51480 -0.00000 0.00000 -0.00000 -141.51300 -61.10830 -121.87900 -40.22390 55.64460 -70.18300 23.01610 6.35351 -13.70040 7.84881 0.34272 0.01529 89.60880 -8.57121 84.45080 -0.19088 30.11930 109.00400 7.92699 10.72850 6.76307 29.57790 -6.20371 -5.34075 -32.72100 16.23320 86.09920 -16.31980 -1.74870 0.84378 9.12876 -5.36317 -52.34100 -22.34360 12.66980 13.12720 39.35060 10.20400 -27.60670 -29.20560 -5.90779 0.30020 3.74084 -30.92270 8.06845 
25.14590 93.04460 -42.68710 -12.36650 -8.77821 -34.48720 1.89236 11.44320 -1.70271 0.37047 23.20330 -2.67129 -8.27041 -0.34100 20.11120 -0.00000 0.00000 -0.00000 -141.71201 -60.90420 -121.95300 -40.43620 56.09690 -70.07230 22.84010 6.40409 -13.59120 8.14617 0.30217 -0.37840 88.78440 -9.77634 84.93840 0.72289 30.20970 109.06800 7.79089 10.72420 6.88136 30.24170 -6.38617 -2.23344 -33.45700 17.06320 89.90140 -17.24770 -2.78673 0.74192 9.50594 -3.09708 -51.44150 -22.26900 13.81000 13.24170 39.44280 8.93982 -27.20330 -28.75830 -5.90708 0.29302 3.50990 -29.76420 7.78800 
25.20150 92.93720 -41.90440 -12.92200 -8.49745 -33.88660 1.86041 11.38900 -1.65243 0.85975 23.05550 -2.78497 -8.35649 0.13930 19.85860 -0.00000 0.00000 -0.00000 -142.14301 -60.72720 -122.16500 -40.79220 56.51800 -69.84500 22.32410 6.51102 -13.47240 8.42774 0.26101 -0.75854 87.96930 -11.12930 85.45810 0.76426 30.03930 109.55600 7.75150 10.72700 6.97159 31.10850 -6.59789 1.03366 -34.31800 18.20770 93.58330 -18.54710 -4.11277 0.59024 9.84471 -0.45354 -50.14260 -22.05880 15.13220 13.41820 39.56310 7.55327 -26.79210 -28.20720 -5.91975 0.28067 3.26936 -28.52230 7.46982 
25.25570 92.81240 -41.01180 -13.59710 -8.22903 -33.20850 1.88277 11.32230 -1.61600 1.43290 22.87560 -2.94023 -8.34823 0.56554 19.69960 -0.00000 0.00000 -0.00000 -142.89999 -60.56520 -122.61100 -41.26670 56.97640 -69.48930 21.47720 6.67242 -13.33790 8.70758 0.22313 -1.09546 87.23950 -12.66020 86.00060 0.29182 29.78430 110.29400 7.79075 10.73070 6.97027 32.09610 -6.63958 4.39473 -35.20620 19.33530 96.67080 -19.95420 -5.55740 0.38928 10.15150 2.20952 -48.97200 -21.79480 16.69260 13.71400 39.68480 5.93421 -26.39280 -27.49510 -5.80394 0.29836 3.04467 -27.33170 7.13454 
25.31240 92.69620 -40.01560 -14.31130 -8.05106 -32.40190 1.87606 11.25630 -1.59799 2.00097 22.68110 -3.14750 -8.26885 1.03148 19.52010 -0.00000 0.00000 -0.00000 -143.32100 -60.42950 -122.80200 -41.43040 57.33710 -69.35420 20.53360 6.85344 -13.16460 9.07285 0.18505 -1.42273 86.56350 -14.34040 86.55250 -0.13517 29.63300 111.01400 7.85708 10.73060 6.88107 33.04210 -6.42387 7.68952 -35.99780 20.24470 98.97030 -21.38630 -6.98615 0.15412 10.51720 4.64682 -48.45720 -21.59220 18.52710 14.16960 39.80510 4.02470 -26.00120 -26.61520 -5.43187 0.37412 2.84921 -26.32820 6.71212 
25.37630 92.59110 -38.93330 -14.95590 -8.02439 -31.40910 1.73744 11.20710 -1.59492 2.47746 22.49420 -3.41862 -8.06929 1.58742 19.23650 -0.00000 0.00000 -0.00000 -142.46300 -60.33820 -122.01200 -40.76340 57.36320 -69.88130 19.81590 7.00440 -12.94130 9.61895 0.13754 -1.80761 85.84590 -16.11120 87.09690 -0.24154 29.63070 111.58300 7.92367 10.72780 6.75836 33.75580 -6.01278 10.72540 -36.58090 20.89650 100.58800 -22.76690 -8.29113 -0.09427 11.02670 6.65328 -48.90430 -21.56860 20.53750 14.78150 39.96020 1.98486 -25.61760 -25.54900 -4.76784 0.50774 2.68490 -25.61240 6.06614 
25.45130 92.51110 -37.80630 -15.37990 -8.17973 -30.19520 1.27156 11.19310 -1.57609 2.79883 22.31950 -3.75479 -7.69447 2.22928 18.80780 -0.00000 0.00000 -0.00000 -140.10600 -60.24380 -120.05000 -39.28140 57.02270 -71.04690 19.52450 7.09165 -12.69060 10.36570 0.07342 -2.28285 85.02260 -17.94600 87.60140 -0.06371 29.70120 112.01200 7.99898 10.72830 6.66886 34.02810 -5.43789 13.39950 -36.85310 21.15090 101.61000 -23.65930 -9.38691 -0.32471 11.65380 7.75437 -50.40980 -21.83770 22.46810 15.52790 40.19550 0.15821 -25.28110 -24.24400 -3.84215 0.67847 2.54514 -25.21930 5.07935 
25.52830 92.51230 -36.73440 -15.25980 -8.61212 -28.80180 -0.14909 11.29870 -1.39412 2.92072 22.16620 -4.13618 -7.16182 2.95989 18.22510 -0.00000 0.00000 -0.00000 -136.78500 -60.04890 -117.29100 -37.51170 56.49900 -72.39700 19.67480 7.11054 -12.44380 11.24260 -0.00848 -2.83068 84.10390 -19.86460 88.01780 0.26638 29.76400 112.37300 8.09557 10.73540 6.64225 33.41730 -4.52065 15.64920 -36.70230 20.52230 101.93200 -23.33950 -10.23340 -0.49159 12.22740 7.33048 -52.87130 -22.64190 23.77250 16.35160 40.54050 -0.68794 -25.22170 -22.61520 -2.82576 0.83166 2.43710 -25.20490 3.82402 
25.69410 92.66660 -35.63110 -14.87870 -9.14698 -27.19180 -1.74630 11.39010 -1.23088 2.79076 21.98760 -4.51699 -6.55265 3.79776 17.50210 -0.00000 0.00000 -0.00000 -133.15601 -59.69310 -114.19500 -35.95960 55.98910 -73.52700 20.16130 7.07894 -12.20440 12.13620 -0.10369 -3.40842 83.15370 -21.89430 88.30150 0.67606 29.80500 112.73300 8.20688 10.74710 6.65716 32.17980 -3.23633 17.28850 -36.23600 19.01170 101.44300 -21.77210 -10.83370 -0.56810 12.50160 5.13325 -55.97780 -23.72250 24.57560 17.17360 41.02520 -0.77667 -25.37150 -20.83010 -1.36543 1.03092 2.39295 -25.75180 2.59511 
25.97790 93.06190 -34.45750 -14.13760 -9.89866 -25.37850 -3.72774 11.46060 -1.09632 2.31657 21.77040 -4.83498 -5.95075 4.72394 16.66060 -0.00000 0.00000 -0.00000 -129.46500 -59.17300 -110.91000 -34.73440 55.49470 -74.37360 20.80470 7.02721 -11.96020 12.94340 -0.20512 -3.97759 82.24220 -24.03660 88.43590 1.13506 29.85200 113.13600 8.31511 10.75870 6.67337 30.07430 -1.35355 17.91450 -35.51770 16.30710 100.25600 -19.22330 -11.08070 -0.53532 12.29580 1.47263 -59.34470 -25.33180 24.98510 18.11430 41.70480 -0.33176 -25.82210 -19.12550 0.91186 1.33121 2.44364 -27.07090 1.67917 
